<?xml version="1.0" encoding="UTF-8"?>
<svg xmlns="http://www.w3.org/2000/svg" viewBox="0 0 1280 720">
<rect x="0" y="0" width="1280" height="720" fill="#F7F9FC" rx="0"/>
<rect x="0" y="0" width="1280" height="70" fill="#1F4E79" rx="0"/>
<rect x="0" y="0" width="6" height="70" fill="#C43D3D" rx="0"/>
<text x="40" y="46" text-anchor="start" fill="#FFFFFF" font-family="Microsoft YaHei, Arial, sans-serif" font-size="28" font-weight="bold">02 UNet 为何是系统中枢</text>
<text x="1220" y="46" text-anchor="end" fill="#FFFFFF" font-family="Microsoft YaHei, Arial, sans-serif" font-size="18" font-weight="bold">Ink-Diffusion</text>
<rect x="0" y="70" width="1280" height="50" fill="#E8EEF5" rx="0"/>
<rect x="0" y="70" width="6" height="50" fill="#2F6B8A" rx="0"/>
<text x="40" y="102" text-anchor="start" fill="#1A1A1A" font-family="Microsoft YaHei, Arial, sans-serif" font-size="18" font-weight="normal">所有关键状态都在 Streaming UNet 汇合，因此它不只是普通去噪器</text>
<line x1="40" y1="665" x2="1240" y2="665" stroke="#C9D3DF" stroke-width="1"/>
<text x="40" y="695" text-anchor="start" fill="#7A8795" font-family="Microsoft YaHei, Arial, sans-serif" font-size="12" font-weight="normal">数据来源：项目讲稿整理</text>
<text x="640" y="695" text-anchor="middle" fill="#7A8795" font-family="Microsoft YaHei, Arial, sans-serif" font-size="12" font-weight="normal">关键机制拆解</text>
<text x="1220" y="695" text-anchor="end" fill="#5B6573" font-family="Microsoft YaHei, Arial, sans-serif" font-size="14" font-weight="normal">09</text>
<rect x="420" y="220" width="440" height="220" fill="#FFFFFF" rx="8"/>
<rect x="420" y="220" width="440" height="220" fill="none" rx="8" stroke="#2F6B8A" stroke-width="2"/>
<use data-icon="microchip" x="610" y="250" width="40" height="40" fill="#1F4E79"/>
<text x="640" y="318" text-anchor="middle" fill="#1F4E79" font-family="Microsoft YaHei, Arial, sans-serif" font-size="38" font-weight="bold">Streaming UNet</text>
<text x="640" y="360" text-anchor="middle" fill="#5B6573" font-family="Microsoft YaHei, Arial, sans-serif" font-size="18" font-weight="normal"><tspan x="640" dy="0">latent 主干 + 时序注意力 + depth 条件 + LCM 调度接口</tspan></text>
<rect x="110" y="180" width="220" height="84" fill="#FFFFFF" rx="8"/>
<rect x="110" y="180" width="220" height="84" fill="none" rx="8" stroke="#C9D3DF" stroke-width="1"/>
<use data-icon="layers" x="128" y="200" width="22" height="22" fill="#1F4E79"/>
<text x="160" y="226" text-anchor="start" fill="#1A1A1A" font-family="Microsoft YaHei, Arial, sans-serif" font-size="20" font-weight="bold">当前 noisy latent</text>
<rect x="110" y="330" width="220" height="84" fill="#FFFFFF" rx="8"/>
<rect x="110" y="330" width="220" height="84" fill="none" rx="8" stroke="#C9D3DF" stroke-width="1"/>
<use data-icon="mountains" x="128" y="350" width="22" height="22" fill="#1F4E79"/>
<text x="160" y="376" text-anchor="start" fill="#1A1A1A" font-family="Microsoft YaHei, Arial, sans-serif" font-size="20" font-weight="bold">depth latent</text>
<rect x="950" y="180" width="220" height="84" fill="#FFFFFF" rx="8"/>
<rect x="950" y="180" width="220" height="84" fill="none" rx="8" stroke="#C9D3DF" stroke-width="1"/>
<use data-icon="comment-dots" x="968" y="200" width="22" height="22" fill="#1F4E79"/>
<text x="1000" y="226" text-anchor="start" fill="#1A1A1A" font-family="Microsoft YaHei, Arial, sans-serif" font-size="20" font-weight="bold">prompt embeds</text>
<rect x="950" y="330" width="220" height="84" fill="#FFFFFF" rx="8"/>
<rect x="950" y="330" width="220" height="84" fill="none" rx="8" stroke="#C9D3DF" stroke-width="1"/>
<use data-icon="database" x="968" y="350" width="22" height="22" fill="#1F4E79"/>
<text x="1000" y="376" text-anchor="start" fill="#1A1A1A" font-family="Microsoft YaHei, Arial, sans-serif" font-size="20" font-weight="bold">KV-cache</text>
<rect x="110" y="500" width="220" height="84" fill="#FFFFFF" rx="8"/>
<rect x="110" y="500" width="220" height="84" fill="none" rx="8" stroke="#C9D3DF" stroke-width="1"/>
<use data-icon="sliders" x="128" y="520" width="22" height="22" fill="#1F4E79"/>
<text x="160" y="546" text-anchor="start" fill="#1A1A1A" font-family="Microsoft YaHei, Arial, sans-serif" font-size="20" font-weight="bold">attn_bias / pe_idx</text>
<rect x="950" y="500" width="220" height="84" fill="#FFFFFF" rx="8"/>
<rect x="950" y="500" width="220" height="84" fill="none" rx="8" stroke="#C9D3DF" stroke-width="1"/>
<use data-icon="arrow-rotate-right" x="968" y="520" width="22" height="22" fill="#1F4E79"/>
<text x="1000" y="546" text-anchor="start" fill="#1A1A1A" font-family="Microsoft YaHei, Arial, sans-serif" font-size="20" font-weight="bold">update_idx</text>
<line x1="330" y1="222" x2="412" y2="270" stroke="#2F6B8A" stroke-width="2"/>
<polygon points="404,264 404,276 412,270" fill="#2F6B8A"/>
<line x1="330" y1="372" x2="412" y2="372" stroke="#2F6B8A" stroke-width="2"/>
<polygon points="404,366 404,378 412,372" fill="#2F6B8A"/>
<line x1="950" y1="222" x2="868" y2="270" stroke="#2F6B8A" stroke-width="2"/>
<polygon points="860,264 860,276 868,270" fill="#2F6B8A"/>
<line x1="950" y1="372" x2="868" y2="372" stroke="#2F6B8A" stroke-width="2"/>
<polygon points="860,366 860,378 868,372" fill="#2F6B8A"/>
<line x1="330" y1="542" x2="470" y2="438" stroke="#2F6B8A" stroke-width="2"/>
<polygon points="462,432 462,444 470,438" fill="#2F6B8A"/>
<line x1="950" y1="542" x2="810" y2="438" stroke="#2F6B8A" stroke-width="2"/>
<polygon points="802,432 802,444 810,438" fill="#2F6B8A"/>
<rect x="60" y="620" width="1160" height="28" fill="#E8EEF5" rx="8"/>
<text x="80" y="640" text-anchor="start" fill="#1F4E79" font-family="Microsoft YaHei, Arial, sans-serif" font-size="18" font-weight="bold">一句话概括：UNet 是一个以 latent 为主干、以时序注意力为记忆机制、以 depth 为结构偏置的流式视频去噪器。</text>
</svg>
