<?xml version="1.0" encoding="UTF-8"?>
<svg xmlns="http://www.w3.org/2000/svg" viewBox="0 0 1280 720">
<rect x="0" y="0" width="1280" height="720" fill="#FFFFFF" rx="0" />
<rect x="0" y="0" width="1280" height="70" fill="#1F4E79" rx="0" />
<rect x="0" y="0" width="6" height="70" fill="#C43D3D" rx="0" />
<text x="40" y="46" text-anchor="start" fill="#FFFFFF" font-family="Microsoft YaHei, Arial, sans-serif" font-size="28" font-weight="bold">目 录</text>
<text x="1200" y="46" text-anchor="end" fill="#FFFFFF" font-family="Microsoft YaHei, Arial, sans-serif" font-size="18" font-weight="bold">Ink-Diffusion</text>
<path fill="#E8EEF5" d="M88,115 H612 A8,8 0 0 1 620,123 V197 A8,8 0 0 1 612,205 H88 A8,8 0 0 1 80,197 V123 A8,8 0 0 1 88,115 Z" />
<path fill="#1F4E79" d="M83,115 H83 A3,3 0 0 1 86,118 V202 A3,3 0 0 1 83,205 H83 A3,3 0 0 1 80,202 V118 A3,3 0 0 1 83,115 Z" />
<text x="120" y="160" text-anchor="start" fill="#1F4E79" font-family="Microsoft YaHei, Arial, sans-serif" font-size="36" font-weight="bold">01</text>
<text x="185" y="160" text-anchor="start" fill="#1F4E79" font-family="Microsoft YaHei, Arial, sans-serif" font-size="24" font-weight="bold">研究定位与系统理解</text>
<text x="120" y="188" text-anchor="start" fill="#5B6573" font-family="Microsoft YaHei, Arial, sans-serif" font-size="14" font-weight="normal">回答研究对象、选型逻辑与系统边界</text>
<path fill="#E8EEF5" d="M668,115 H1192 A8,8 0 0 1 1200,123 V197 A8,8 0 0 1 1192,205 H668 A8,8 0 0 1 660,197 V123 A8,8 0 0 1 668,115 Z" />
<path fill="#1F4E79" d="M663,115 H663 A3,3 0 0 1 666,118 V202 A3,3 0 0 1 663,205 H663 A3,3 0 0 1 660,202 V118 A3,3 0 0 1 663,115 Z" />
<text x="700" y="160" text-anchor="start" fill="#1F4E79" font-family="Microsoft YaHei, Arial, sans-serif" font-size="36" font-weight="bold">02</text>
<text x="765" y="160" text-anchor="start" fill="#1F4E79" font-family="Microsoft YaHei, Arial, sans-serif" font-size="24" font-weight="bold">关键机制拆解</text>
<text x="700" y="188" text-anchor="start" fill="#5B6573" font-family="Microsoft YaHei, Arial, sans-serif" font-size="14" font-weight="normal">解释实时性、UNet 中枢与缓存机制</text>
<path fill="#E8EEF5" d="M88,230 H612 A8,8 0 0 1 620,238 V312 A8,8 0 0 1 612,320 H88 A8,8 0 0 1 80,312 V238 A8,8 0 0 1 88,230 Z" />
<path fill="#2F6B8A" d="M83,230 H83 A3,3 0 0 1 86,233 V317 A3,3 0 0 1 83,320 H83 A3,3 0 0 1 80,317 V233 A3,3 0 0 1 83,230 Z" />
<text x="120" y="275" text-anchor="start" fill="#1F4E79" font-family="Microsoft YaHei, Arial, sans-serif" font-size="36" font-weight="bold">03</text>
<text x="185" y="275" text-anchor="start" fill="#1F4E79" font-family="Microsoft YaHei, Arial, sans-serif" font-size="24" font-weight="bold">瓶颈与改造方向</text>
<text x="120" y="303" text-anchor="start" fill="#5B6573" font-family="Microsoft YaHei, Arial, sans-serif" font-size="14" font-weight="normal">说明为何离高质量水墨仍有距离</text>
<path fill="#E8EEF5" d="M668,230 H1192 A8,8 0 0 1 1200,238 V312 A8,8 0 0 1 1192,320 H668 A8,8 0 0 1 660,312 V238 A8,8 0 0 1 668,230 Z" />
<path fill="#2F6B8A" d="M663,230 H663 A3,3 0 0 1 666,233 V317 A3,3 0 0 1 663,320 H663 A3,3 0 0 1 660,317 V233 A3,3 0 0 1 663,230 Z" />
<text x="700" y="275" text-anchor="start" fill="#1F4E79" font-family="Microsoft YaHei, Arial, sans-serif" font-size="36" font-weight="bold">04</text>
<text x="765" y="275" text-anchor="start" fill="#1F4E79" font-family="Microsoft YaHei, Arial, sans-serif" font-size="24" font-weight="bold">升级路线与总结</text>
<text x="700" y="303" text-anchor="start" fill="#5B6573" font-family="Microsoft YaHei, Arial, sans-serif" font-size="14" font-weight="normal">给出面向水墨的结构化升级链路</text>
<path fill="none" stroke="#C9D3DF" stroke-width="1" stroke-dasharray="4,4" d="M88,345 H612 A8,8 0 0 1 620,353 V427 A8,8 0 0 1 612,435 H88 A8,8 0 0 1 80,427 V353 A8,8 0 0 1 88,345 Z" />
<text x="350" y="398" text-anchor="middle" fill="#7A8795" font-family="Microsoft YaHei, Arial, sans-serif" font-size="16" font-weight="normal">研究结论与答辩讨论</text>
<path fill="none" stroke="#C9D3DF" stroke-width="1" stroke-dasharray="4,4" d="M668,345 H1192 A8,8 0 0 1 1200,353 V427 A8,8 0 0 1 1192,435 H668 A8,8 0 0 1 660,427 V353 A8,8 0 0 1 668,345 Z" />
<text x="930" y="398" text-anchor="middle" fill="#7A8795" font-family="Microsoft YaHei, Arial, sans-serif" font-size="16" font-weight="normal">后续实验与工程落地</text>
<line x1="40" y1="665" x2="1240" y2="665" stroke="#C9D3DF" stroke-width="1" />
<text x="1220" y="698" text-anchor="end" fill="#7A8795" font-family="Microsoft YaHei, Arial, sans-serif" font-size="14" font-weight="normal">02</text>
</svg>