<?xml version="1.0" encoding="UTF-8"?>
<svg xmlns="http://www.w3.org/2000/svg" viewBox="0 0 1280 720">
<rect x="0" y="0" width="1280" height="720" fill="#F7F9FC" rx="0" />
<rect x="0" y="0" width="1280" height="70" fill="#1F4E79" rx="0" />
<rect x="0" y="0" width="6" height="70" fill="#C43D3D" rx="0" />
<text x="40" y="46" text-anchor="start" fill="#FFFFFF" font-family="Microsoft YaHei, Arial, sans-serif" font-size="28" font-weight="bold">02 缓存与结构条件机制</text>
<text x="1220" y="46" text-anchor="end" fill="#FFFFFF" font-family="Microsoft YaHei, Arial, sans-serif" font-size="18" font-weight="bold">Ink-Diffusion</text>
<rect x="0" y="70" width="1280" height="50" fill="#E8EEF5" rx="0" />
<rect x="0" y="70" width="6" height="50" fill="#2F6B8A" rx="0" />
<text x="40" y="102" text-anchor="start" fill="#1A1A1A" font-family="Microsoft YaHei, Arial, sans-serif" font-size="18" font-weight="normal">noisy batch、双 buffer、KV-cache 与 depth 条件一起，构成了这套系统的运行骨架</text>
<line x1="40" y1="665" x2="1240" y2="665" stroke="#C9D3DF" stroke-width="1" />
<text x="40" y="695" text-anchor="start" fill="#7A8795" font-family="Microsoft YaHei, Arial, sans-serif" font-size="12" font-weight="normal">数据来源：项目讲稿整理</text>
<text x="640" y="695" text-anchor="middle" fill="#7A8795" font-family="Microsoft YaHei, Arial, sans-serif" font-size="12" font-weight="normal">关键机制拆解</text>
<text x="1220" y="695" text-anchor="end" fill="#5B6573" font-family="Microsoft YaHei, Arial, sans-serif" font-size="14" font-weight="normal">10</text>
<path fill="#FFFFFF" d="M68,150 H622 A8,8 0 0 1 630,158 V332 A8,8 0 0 1 622,340 H68 A8,8 0 0 1 60,332 V158 A8,8 0 0 1 68,150 Z" />
<path fill="none" stroke="#C9D3DF" stroke-width="1" d="M68,150 H622 A8,8 0 0 1 630,158 V332 A8,8 0 0 1 622,340 H68 A8,8 0 0 1 60,332 V158 A8,8 0 0 1 68,150 Z" />

  <g transform="translate(80.0, 170.0) scale(1.5)" fill="#1F4E79">
    <path d="M1 5V3L8 0L15 3V5L8 8L1 5Z" />
    <path d="M8 16L1 13V11L8 14L15 11V13L8 16Z" />
    <path d="M1 9L8 12L15 9V7L8 10L1 7V9Z" />
  </g>
<text x="116" y="192" text-anchor="start" fill="#1F4E79" font-family="Microsoft YaHei, Arial, sans-serif" font-size="22" font-weight="bold">noisy batch 的严格含义</text>
<circle cx="82" cy="231" r="4" fill="#2F6B8A" />
<text x="98" y="236" text-anchor="start" fill="#1A1A1A" font-family="Microsoft YaHei, Arial, sans-serif" font-size="18" font-weight="normal">不是“多帧一起生成”</text>
<circle cx="82" cy="261" r="4" fill="#2F6B8A" />
<text x="98" y="266" text-anchor="start" fill="#1A1A1A" font-family="Microsoft YaHei, Arial, sans-serif" font-size="18" font-weight="normal">而是把不同去噪阶段的中间状态拼成 batch</text>
<circle cx="82" cy="291" r="4" fill="#2F6B8A" />
<text x="98" y="296" text-anchor="start" fill="#1A1A1A" font-family="Microsoft YaHei, Arial, sans-serif" font-size="18" font-weight="normal">收益是减少 UNet 调用，代价是固定流水线延迟</text>
<path fill="#FFFFFF" d="M658,150 H1212 A8,8 0 0 1 1220,158 V332 A8,8 0 0 1 1212,340 H658 A8,8 0 0 1 650,332 V158 A8,8 0 0 1 658,150 Z" />
<path fill="none" stroke="#C9D3DF" stroke-width="1" d="M658,150 H1212 A8,8 0 0 1 1220,158 V332 A8,8 0 0 1 1212,340 H658 A8,8 0 0 1 650,332 V158 A8,8 0 0 1 658,150 Z" />

  <g transform="translate(670.0, 170.0) scale(1.5)" fill="#1F4E79">
    <path d="M13.1371 6.91018C13.4184 6.7695 13.7123 6.59981 14 6.40001V8C14 9.65685 11.3137 11 8 11C4.68629 11 2 9.65685 2 8V6.40001C2.28772 6.59981 2.58158 6.7695 2.86293 6.91018C4.28096 7.61919 6.09998 8 8 8C9.90002 8 11.719 7.61919 13.1371 6.91018Z" />
    <path d="M2 11.4V13C2 14.6569 4.68629 16 8 16C11.3137 16 14 14.6569 14 13V11.4C13.7123 11.5998 13.4184 11.7695 13.1371 11.9102C11.719 12.6192 9.90002 13 8 13C6.09998 13 4.28096 12.6192 2.86293 11.9102C2.58158 11.7695 2.28772 11.5998 2 11.4Z" />
    <path d="M8 0C11.3137 0 14 1.34315 14 3C14 4.65685 11.3137 6 8 6C4.68629 6 2 4.65685 2 3C2 1.34315 4.68629 0 8 0Z" />
  </g>
<text x="706" y="192" text-anchor="start" fill="#1F4E79" font-family="Microsoft YaHei, Arial, sans-serif" font-size="22" font-weight="bold">PrevXT / PrevDepth Buffer</text>
<circle cx="672" cy="231" r="4" fill="#2F6B8A" />
<text x="688" y="236" text-anchor="start" fill="#1A1A1A" font-family="Microsoft YaHei, Arial, sans-serif" font-size="18" font-weight="normal">保存尚未完成去噪的 latent 中间状态</text>
<circle cx="672" cy="261" r="4" fill="#2F6B8A" />
<text x="688" y="266" text-anchor="start" fill="#1A1A1A" font-family="Microsoft YaHei, Arial, sans-serif" font-size="18" font-weight="normal">并绑定对应 depth 条件，避免结构错位</text>
<circle cx="672" cy="291" r="4" fill="#2F6B8A" />
<text x="688" y="296" text-anchor="start" fill="#1A1A1A" font-family="Microsoft YaHei, Arial, sans-serif" font-size="18" font-weight="normal">本质是为少步扩散维持可滚动流水线</text>
<path fill="#FFFFFF" d="M68,380 H622 A8,8 0 0 1 630,388 V562 A8,8 0 0 1 622,570 H68 A8,8 0 0 1 60,562 V388 A8,8 0 0 1 68,380 Z" />
<path fill="none" stroke="#C9D3DF" stroke-width="1" d="M68,380 H622 A8,8 0 0 1 630,388 V562 A8,8 0 0 1 622,570 H68 A8,8 0 0 1 60,562 V388 A8,8 0 0 1 68,380 Z" />

  <g transform="translate(80.0, 400.0) scale(1.5)" fill="#1F4E79">
    <path fill-rule="evenodd" clip-rule="evenodd" d="M16 2H0V7H16V2ZM4 4.5C4 5.05228 3.55228 5.5 3 5.5C2.44772 5.5 2 5.05228 2 4.5C2 3.94772 2.44772 3.5 3 3.5C3.55228 3.5 4 3.94772 4 4.5Z" />
    <path fill-rule="evenodd" clip-rule="evenodd" d="M16 9H0V14H16V9ZM3 12.5C3.55228 12.5 4 12.0523 4 11.5C4 10.9477 3.55228 10.5 3 10.5C2.44772 10.5 2 10.9477 2 11.5C2 12.0523 2.44772 12.5 3 12.5Z" />
  </g>
<text x="116" y="422" text-anchor="start" fill="#1F4E79" font-family="Microsoft YaHei, Arial, sans-serif" font-size="22" font-weight="bold">KV-cache 的作用与边界</text>
<circle cx="82" cy="461" r="4" fill="#2F6B8A" />
<text x="98" y="466" text-anchor="start" fill="#1A1A1A" font-family="Microsoft YaHei, Arial, sans-serif" font-size="18" font-weight="normal">缓存的是历史 temporal attention 的 K/V 特征</text>
<circle cx="82" cy="491" r="4" fill="#2F6B8A" />
<text x="98" y="496" text-anchor="start" fill="#1A1A1A" font-family="Microsoft YaHei, Arial, sans-serif" font-size="18" font-weight="normal">配合 attn_bias、pe_idx、update_idx 形成滚动记忆</text>
<circle cx="82" cy="521" r="4" fill="#2F6B8A" />
<text x="98" y="526" text-anchor="start" fill="#1A1A1A" font-family="Microsoft YaHei, Arial, sans-serif" font-size="18" font-weight="normal">不是把过去原图再看一遍</text>
<path fill="#FFFFFF" d="M658,380 H1212 A8,8 0 0 1 1220,388 V562 A8,8 0 0 1 1212,570 H658 A8,8 0 0 1 650,562 V388 A8,8 0 0 1 658,380 Z" />
<path fill="none" stroke="#C9D3DF" stroke-width="1" d="M658,380 H1212 A8,8 0 0 1 1220,388 V562 A8,8 0 0 1 1212,570 H658 A8,8 0 0 1 650,562 V388 A8,8 0 0 1 658,380 Z" />

  <g transform="translate(670.0, 400.0) scale(1.5)" fill="#1F4E79">
    <path d="M4 1H6L8.2 7.05L10 3H12L16 12V14H0V12L4 1Z" />
  </g>
<text x="706" y="422" text-anchor="start" fill="#1F4E79" font-family="Microsoft YaHei, Arial, sans-serif" font-size="22" font-weight="bold">Depth 在主路径里的真实角色</text>
<circle cx="672" cy="461" r="4" fill="#2F6B8A" />
<text x="688" y="466" text-anchor="start" fill="#1A1A1A" font-family="Microsoft YaHei, Arial, sans-serif" font-size="18" font-weight="normal">它不是标准 ControlNet</text>
<circle cx="672" cy="491" r="4" fill="#2F6B8A" />
<text x="688" y="496" text-anchor="start" fill="#1A1A1A" font-family="Microsoft YaHei, Arial, sans-serif" font-size="18" font-weight="normal">更接近主干入口的轻量结构注入</text>
<circle cx="672" cy="521" r="4" fill="#2F6B8A" />
<text x="688" y="526" text-anchor="start" fill="#1A1A1A" font-family="Microsoft YaHei, Arial, sans-serif" font-size="18" font-weight="normal">优势是轻量稳定，职责是结构约束而不是风格表达</text>
</svg>