<?xml version="1.0" encoding="UTF-8"?>
<svg xmlns="http://www.w3.org/2000/svg" viewBox="0 0 1280 720">
<rect x="0" y="0" width="1280" height="720" fill="#FFFFFF" rx="0" />
<rect x="0" y="0" width="1280" height="100" fill="#1F4E79" rx="0" />
<rect x="0" y="0" width="6" height="100" fill="#C43D3D" rx="0" />
<text x="1200" y="58" text-anchor="end" fill="#FFFFFF" font-family="Microsoft YaHei, Arial, sans-serif" font-size="18" font-weight="bold">Ink-Diffusion</text>
<text x="640" y="300" text-anchor="middle" fill="#1F4E79" font-family="Microsoft YaHei, Arial, sans-serif" font-size="56" font-weight="bold">谢 谢</text>
<text x="640" y="365" text-anchor="middle" fill="#5B6573" font-family="Microsoft YaHei, Arial, sans-serif" font-size="24" font-weight="normal">欢迎老师批评指正</text>
<line x1="460" y1="405" x2="820" y2="405" stroke="#2F6B8A" stroke-width="2" />
<circle cx="640" cy="405" r="5" fill="#C43D3D" />
<path fill="#F5F7FA" d="M368,445 H912 A8,8 0 0 1 920,453 V567 A8,8 0 0 1 912,575 H368 A8,8 0 0 1 360,567 V453 A8,8 0 0 1 368,445 Z" />
<text x="640" y="490" text-anchor="middle" fill="#1A1A1A" font-family="Microsoft YaHei, Arial, sans-serif" font-size="18" font-weight="normal">项目主题：Ink-Diffusion / Live2Diff 实时水墨视频</text>
<text x="640" y="525" text-anchor="middle" fill="#5B6573" font-family="Microsoft YaHei, Arial, sans-serif" font-size="16" font-weight="normal">当前阶段：系统拆解、问题定位、改造设计</text>
<text x="640" y="555" text-anchor="middle" fill="#5B6573" font-family="Microsoft YaHei, Arial, sans-serif" font-size="16" font-weight="normal">Ink-Diffusion 项目</text>
<rect x="0" y="665" width="1280" height="55" fill="#F5F7FA" rx="0" />
<text x="640" y="698" text-anchor="middle" fill="#7A8795" font-family="Microsoft YaHei, Arial, sans-serif" font-size="14" font-weight="normal">Ink-Diffusion 项目答辩 · 2026</text>
<text x="1220" y="698" text-anchor="end" fill="#7A8795" font-family="Microsoft YaHei, Arial, sans-serif" font-size="14" font-weight="normal">14</text>
</svg>